<svg width="19" height="19" viewBox="0 0 19 19" fill="none" xmlns="http://www.w3.org/2000/svg">
<path d="M1 8.5862H7C7.26522 8.5862 7.51957 8.48084 7.70711 8.29331C7.89464 8.10577 8 7.85142 8 7.5862V1.5862C8 1.32098 7.89464 1.06663 7.70711 0.879094C7.51957 0.691558 7.26522 0.586201 7 0.586201H1C0.734784 0.586201 0.48043 0.691558 0.292893 0.879094C0.105357 1.06663 0 1.32098 0 1.5862V7.5862C0 7.85142 0.105357 8.10577 0.292893 8.29331C0.48043 8.48084 0.734784 8.5862 1 8.5862ZM1 18.5862H7C7.26522 18.5862 7.51957 18.4808 7.70711 18.2933C7.89464 18.1058 8 17.8514 8 17.5862V11.5862C8 11.321 7.89464 11.0666 7.70711 10.8791C7.51957 10.6916 7.26522 10.5862 7 10.5862H1C0.734784 10.5862 0.48043 10.6916 0.292893 10.8791C0.105357 11.0666 0 11.321 0 11.5862V17.5862C0 17.8514 0.105357 18.1058 0.292893 18.2933C0.48043 18.4808 0.734784 18.5862 1 18.5862ZM11 18.5862H17C17.2652 18.5862 17.5196 18.4808 17.7071 18.2933C17.8946 18.1058 18 17.8514 18 17.5862V11.5862C18 11.321 17.8946 11.0666 17.7071 10.8791C17.5196 10.6916 17.2652 10.5862 17 10.5862H11C10.7348 10.5862 10.4804 10.6916 10.2929 10.8791C10.1054 11.0666 10 11.321 10 11.5862V17.5862C10 17.8514 10.1054 18.1058 10.2929 18.2933C10.4804 18.4808 10.7348 18.5862 11 18.5862ZM18.293 3.8792L14.707 0.293201C14.6142 0.200255 14.504 0.126518 14.3827 0.0762069C14.2614 0.0258962 14.1313 0 14 0C13.8687 0 13.7386 0.0258962 13.6173 0.0762069C13.496 0.126518 13.3858 0.200255 13.293 0.293201L9.707 3.8792C9.61405 3.97199 9.54032 4.08219 9.49001 4.20351C9.43969 4.32482 9.4138 4.45487 9.4138 4.5862C9.4138 4.71753 9.43969 4.84758 9.49001 4.96889C9.54032 5.09021 9.61405 5.20041 9.707 5.2932L13.293 8.8792C13.3858 8.97215 13.496 9.04588 13.6173 9.0962C13.7386 9.14651 13.8687 9.1724 14 9.1724C14.1313 9.1724 14.2614 9.14651 14.3827 9.0962C14.504 9.04588 14.6142 8.97215 14.707 8.8792L18.293 5.2932C18.3859 5.20041 18.4597 5.09021 18.51 4.96889C18.5603 4.84758 18.5862 4.71753 18.5862 4.5862C18.5862 4.45487 18.5603 4.32482 18.51 4.20351C18.4597 4.08219 18.3859 3.97199 18.293 3.8792Z" fill="black"/>
</svg>
