<svg width="33" height="33" viewBox="0 0 33 33" fill="none" xmlns="http://www.w3.org/2000/svg">
<path d="M29 33C31.0937 33 33 31.3 33 29V8.5C33 6.5 31 4.4 29 4.4H25V3C25 1.35 24 0 22 0H11C8.99997 0 7.99997 1.6 7.99997 3C7.99997 4.4 7.93747 4.4 7.93747 4.4H3.99997C1.99997 4.4 7.30383e-05 5.75 0 8.5V29C-5.09644e-07 31 1.99997 33 3.99997 33H29Z" fill="#EFDA97"/>
<path d="M7.49997 24H25.5C25.5 24 27 24 27 25.5C27 27 25.5 27 25.5 27H7.49997C7.49997 27 5.99997 27 5.99997 25.5C5.99997 24 7.49997 24 7.49997 24Z" fill="#FFF2CF"/>
<path d="M7.49997 17H25.5C25.5 17 27 17 27 18.5C27 20 25.5 20 25.5 20H7.49997C7.49997 20 5.99997 20 5.99997 18.5C5.99997 17 7.49997 17 7.49997 17Z" fill="#FFF2CF"/>
<path d="M7.49997 10H25.5C25.5 10 27 10 27 11.5C27 13 25.5 13 25.5 13H7.49997C7.49997 13 5.99997 13 5.99997 11.5C5.99997 10 7.49997 10 7.49997 10Z" fill="#FFF2CF"/>
</svg>
