<svg width="31" height="33" viewBox="0 0 31 33" fill="none" xmlns="http://www.w3.org/2000/svg">
<g filter="url(#filter0_i_199_6)">
<path d="M22.9162 7.45161V8.55033V12.7742C26.2845 12.7742 31 13.8387 31 19.1613V26.6129C31 32.1484 24.9372 33 22.9162 33H8.09593C2.68343 33 -0.212402 28.7419 0.0121476 26.6129V19.1613C0.0121476 14.0516 5.40134 12.7742 8.09593 12.7742V8.56624V7.45161H22.9162Z" fill="#93E2E9"/>
<path d="M25.5875 6.3871C25.5875 7.22164 24.5746 7.98141 22.9162 8.55033C21.0697 9.18379 18.4229 9.58065 15.4827 9.58065C12.5673 9.58065 9.94025 9.19043 8.09593 8.56624C6.40989 7.99561 5.37801 7.22944 5.37801 6.3871C5.37801 4.62335 9.90205 3.19355 15.4827 3.19355C21.0634 3.19355 25.5875 4.62335 25.5875 6.3871Z" fill="#93E2E9"/>
<path d="M25.5875 3.19355C25.5875 4.9573 21.0634 6.3871 15.4827 6.3871C9.90205 6.3871 5.37801 4.9573 5.37801 3.19355C5.37801 1.4298 9.90205 0 15.4827 0C21.0634 0 25.5875 1.4298 25.5875 3.19355Z" fill="#93E2E9"/>
<path d="M5.37801 3.19355H25.5875V6.3871H5.37801V3.19355Z" fill="#93E2E9"/>
<path d="M22 4.5C22 5.32843 19.3137 6 16 6C12.6863 6 10 5.32843 10 4.5C10 3.67157 12.6863 3 16 3C19.3137 3 22 3.67157 22 4.5Z" fill="#CFFDFF"/>
</g>
<defs>
<filter id="filter0_i_199_6" x="0" y="-1" width="31" height="34" filterUnits="userSpaceOnUse" color-interpolation-filters="sRGB">
<feFlood flood-opacity="0" result="BackgroundImageFix"/>
<feBlend mode="normal" in="SourceGraphic" in2="BackgroundImageFix" result="shape"/>
<feColorMatrix in="SourceAlpha" type="matrix" values="0 0 0 0 0 0 0 0 0 0 0 0 0 0 0 0 0 0 127 0" result="hardAlpha"/>
<feOffset dy="-1"/>
<feGaussianBlur stdDeviation="1"/>
<feComposite in2="hardAlpha" operator="arithmetic" k2="-1" k3="1"/>
<feColorMatrix type="matrix" values="0 0 0 0 0.533333 0 0 0 0 0.811765 0 0 0 0 0.843137 0 0 0 1 0"/>
<feBlend mode="normal" in2="shape" result="effect1_innerShadow_199_6"/>
</filter>
</defs>
</svg>
