<svg width="54" height="55" viewBox="0 0 54 55" fill="none" xmlns="http://www.w3.org/2000/svg">
<path d="M26.6698 1.8899C11.9405 1.8899 0 13.3222 0 27.4248C0 41.5273 11.9405 52.9596 26.6698 52.9596C41.3991 52.9596 53.3395 41.5273 53.3395 27.4248C53.3395 13.3222 41.3991 1.8899 26.6698 1.8899Z" fill="#0195FF"/>
<path d="M35.3046 49.5262C27.8375 56.5823 15.6374 56.132 8.05491 48.5203C0.472421 40.9087 0.378872 29.0182 7.84597 21.9621C10.2623 19.9435 14.9578 18.0275 17.0036 17.3218C20.3256 16.1759 31.5633 15.4697 32.599 8.60479C33.8936 0.0236444 33.2437 3.98225 33.5608 1.00701C33.7628 -0.888415 34.5765 0.270106 35.2665 1.40185C41.9267 11.1616 51.2586 34.4502 35.3046 49.5262Z" fill="#78E2FF"/>
<path d="M5.44672 33.3091C4.83488 37.9023 6.43096 45.5901 11.7907 45.9861C17.5707 46.4131 15.1931 38.4845 16.3418 33.559C17.4039 29.0043 21.2854 24.2538 16.8945 21.897C11.4327 18.9653 6.20567 27.6115 5.44672 33.3091Z" fill="white"/>
</svg>
