<svg width="53" height="69" viewBox="0 0 53 69" fill="none" xmlns="http://www.w3.org/2000/svg">
<path d="M0 12.4522L17.3103 63.2971C17.3103 63.2971 22.7595 70.4608 36.715 67.3772C50.6706 64.2936 52.5941 55.5008 52.5941 55.5008L46.8695 2.09599C46.8695 2.09599 42.8395 11.3543 25.1976 15.2524C7.55573 19.1505 0 12.4522 0 12.4522Z" fill="#DAF0F4"/>
<path d="M25.1976 15.2524C7.55573 19.1505 0 12.4522 0 12.4522C0 12.4522 1.98449 6.43517 22.2595 1.95523C42.5345 -2.5247 46.8695 2.09599 46.8695 2.09599C46.8695 2.09599 42.8395 11.3543 25.1976 15.2524Z" fill="#C6DFEB"/>
<path d="M36.088 63.4049C44.3896 61.3161 50.3959 56.7472 49.5034 53.2L47.6457 36.4484C47.6457 38.0512 35.5884 40.2771 29.4952 42.7771C22.2073 45.7674 17.8248 46.2771 13.3248 42.7771L19.4404 60.7642C20.3329 64.3115 27.7863 65.4938 36.088 63.4049Z" fill="#32B0FF"/>
<path d="M29.4952 42.7771C22.2073 45.7674 17.8248 46.2771 13.3248 42.7771C14.198 39.9552 20.8008 37.66 30.5431 33.7771C39.3248 30.2772 46.0738 36.0923 47.6457 36.4484C47.6457 38.0512 35.5884 40.2771 29.4952 42.7771Z" fill="#88D1FF"/>
</svg>
