<svg width="53" height="69" viewBox="0 0 53 69" fill="none" xmlns="http://www.w3.org/2000/svg">
<path d="M0 12.4522L17.3103 63.2971C17.3103 63.2971 22.7595 70.4608 36.715 67.3772C50.6706 64.2936 52.5941 55.5008 52.5941 55.5008L46.8695 2.09599C46.8695 2.09599 42.8395 11.3543 25.1976 15.2524C7.55573 19.1505 0 12.4522 0 12.4522Z" fill="#DAF0F4"/>
<path d="M25.1976 15.2524C7.55573 19.1505 0 12.4522 0 12.4522C0 12.4522 1.98449 6.43517 22.2595 1.95523C42.5345 -2.5247 46.8695 2.09599 46.8695 2.09599C46.8695 2.09599 42.8395 11.3543 25.1976 15.2524Z" fill="#C6DFEB"/>
<path d="M49.5038 53.1999C50.3964 56.7472 44.3901 61.3161 36.0884 63.4049C27.7868 65.4937 20.3334 64.3115 19.4409 60.7642C18.5483 57.217 24.5546 52.6481 32.8563 50.5592C41.1579 48.4704 48.6113 49.6527 49.5038 53.1999Z" fill="#32B1FF"/>
<path d="M49.2089 52.0279C49.9386 54.9278 42.8248 57.2771 35.4986 61.0608C28.1724 64.8444 19.8756 62.4921 19.1459 59.5921C18.4163 56.6922 24.5546 52.6481 32.8563 50.5592C41.1579 48.4704 48.4792 49.128 49.2089 52.0279Z" fill="#88D1FF"/>
</svg>
