<svg width="53" height="69" viewBox="0 0 53 69" fill="none" xmlns="http://www.w3.org/2000/svg">
<path d="M1.6079e-05 12.4522L17.3103 63.2971C17.3103 63.2971 22.7595 70.4608 36.7151 67.3772C50.6706 64.2936 52.5941 55.5008 52.5941 55.5008L46.8695 2.09599C46.8695 2.09599 42.8395 11.3543 25.1976 15.2524C7.55575 19.1505 1.6079e-05 12.4522 1.6079e-05 12.4522Z" fill="#DAF0F4"/>
<path d="M25.1976 15.2524C7.55575 19.1505 1.6079e-05 12.4522 1.6079e-05 12.4522C1.6079e-05 12.4522 1.98451 6.43517 22.2595 1.95524C42.5345 -2.5247 46.8695 2.09599 46.8695 2.09599C46.8695 2.09599 42.8395 11.3543 25.1976 15.2524Z" fill="#C6DFEB"/>
</svg>
