<svg width="53" height="69" viewBox="0 0 53 69" fill="none" xmlns="http://www.w3.org/2000/svg">
<path d="M0 12.4522L17.3103 63.2971C17.3103 63.2971 22.7595 70.4608 36.715 67.3772C50.6706 64.2936 52.5941 55.5008 52.5941 55.5008L46.8695 2.09599C46.8695 2.09599 42.8395 11.3543 25.1976 15.2524C7.55573 19.1505 0 12.4522 0 12.4522Z" fill="#DAF0F4"/>
<path d="M25.1976 15.2524C7.55573 19.1505 0 12.4522 0 12.4522C0 12.4522 1.98449 6.43517 22.2595 1.95523C42.5345 -2.5247 46.8695 2.09599 46.8695 2.09599C46.8695 2.09599 42.8395 11.3543 25.1976 15.2524Z" fill="#C6DFEB"/>
<path d="M36.0885 63.405C44.3902 61.3161 50.3964 56.7472 49.5039 53.2L48.8248 50.7771C48.8248 52.2771 38.8248 54.2771 34.8248 57.7771C29.1741 62.7214 21.3463 57.3924 17.5038 56.7L19.4409 60.7643C20.3335 64.3115 27.7868 65.4938 36.0885 63.405Z" fill="#32B0FF"/>
<path d="M34.8248 57.7771C29.1741 62.7214 21.3463 57.3924 17.5038 56.7C18.3372 54.059 22.5038 48.6771 32.5038 48.2771C42.5038 47.8771 47.3248 50.4438 48.8248 50.7771C48.8248 52.2771 38.8248 54.2771 34.8248 57.7771Z" fill="#88D1FF"/>
</svg>
