<svg width="53" height="69" viewBox="0 0 53 69" fill="none" xmlns="http://www.w3.org/2000/svg">
<path d="M0 12.4522L17.3103 63.2971C17.3103 63.2971 22.7595 70.4608 36.715 67.3772C50.6706 64.2936 52.5941 55.5008 52.5941 55.5008L46.8695 2.09599C46.8695 2.09599 42.8395 11.3543 25.1976 15.2524C7.55573 19.1505 0 12.4522 0 12.4522Z" fill="#DAF0F4"/>
<path d="M25.1976 15.2524C7.55573 19.1505 0 12.4522 0 12.4522C0 12.4522 1.98449 6.43517 22.2595 1.95523C42.5345 -2.5247 46.8695 2.09599 46.8695 2.09599C46.8695 2.09599 42.8395 11.3543 25.1976 15.2524Z" fill="#C6DFEB"/>
<path d="M36.088 63.405C44.3896 61.3162 50.3959 56.7473 49.5034 53.2L46.5431 27.6786C46.5431 29.3497 33.9 31.1492 27.7431 31.1492C19.6596 31.1492 15.9424 37.9263 11.3248 34.2771L19.4404 60.7643C20.333 64.3115 27.7863 65.4938 36.088 63.405Z" fill="#32B0FF"/>
<path d="M27.7431 31.1492C19.6596 31.1492 15.9424 37.9263 11.3248 34.2771C12.2208 31.3349 18.9962 28.9419 28.9933 24.8934C36.4654 21.8676 44.9302 27.3073 46.5431 27.6786C46.5431 29.3497 33.9 31.1492 27.7431 31.1492Z" fill="#88D1FF"/>
</svg>
