<svg width="53" height="69" viewBox="0 0 53 69" fill="none" xmlns="http://www.w3.org/2000/svg">
<path d="M0 12.4522L17.3103 63.2971C17.3103 63.2971 22.7595 70.4608 36.715 67.3772C50.6706 64.2936 52.5941 55.5008 52.5941 55.5008L46.8695 2.09599C46.8695 2.09599 42.8395 11.3543 25.1976 15.2524C7.55573 19.1505 0 12.4522 0 12.4522Z" fill="#DAF0F4"/>
<path d="M25.1976 15.2524C7.55573 19.1505 0 12.4522 0 12.4522C0 12.4522 1.98449 6.43517 22.2595 1.95523C42.5345 -2.5247 46.8695 2.09599 46.8695 2.09599C46.8695 2.09599 42.8395 11.3543 25.1976 15.2524Z" fill="#C6DFEB"/>
<path d="M36.0885 63.405C44.3901 61.3162 50.3964 56.7473 49.5039 53.2L48.3248 43.3127C48.3248 44.8232 40.3343 51.717 30.6283 49.2771C23.195 47.4086 20.2505 49.9744 16.3248 49.2771L19.4409 60.7643C20.3335 64.3116 27.7868 65.4938 36.0885 63.405Z" fill="#32B0FF"/>
<path d="M30.6283 49.2771C23.195 47.4086 20.2505 49.9744 16.3248 49.2771C17.1762 46.6176 21.4331 41.1979 31.65 40.7951C41.8668 40.3923 46.7922 42.977 48.3248 43.3127C48.3248 44.8232 40.3343 51.717 30.6283 49.2771Z" fill="#88D1FF"/>
</svg>
