<svg width="53" height="69" viewBox="0 0 53 69" fill="none" xmlns="http://www.w3.org/2000/svg">
<path d="M0 12.4522L17.3103 63.2971C17.3103 63.2971 22.7595 70.4608 36.715 67.3772C50.6706 64.2936 52.5941 55.5008 52.5941 55.5008L46.8695 2.09599C46.8695 2.09599 42.8395 11.3543 25.1976 15.2524C7.55573 19.1505 0 12.4522 0 12.4522Z" fill="#DAF0F4"/>
<path d="M25.1976 15.2524C7.55573 19.1505 0 12.4522 0 12.4522C0 12.4522 1.98449 6.43517 22.2595 1.95523C42.5345 -2.5247 46.8695 2.09599 46.8695 2.09599C46.8695 2.09599 42.8395 11.3543 25.1976 15.2524Z" fill="#C6DFEB"/>
<path d="M36.0881 63.405C44.3898 61.3162 50.396 56.7473 49.5035 53.2L46.4933 18.9968C46.4933 20.9672 37.6886 25.2771 28.8248 27.7771C20.2826 30.1864 12.8948 31.08 7.82475 26.7772L19.4405 60.7643C20.3331 64.3116 27.7865 65.4939 36.0881 63.405Z" fill="#32B0FF"/>
<path d="M28.8248 27.7771C20.2826 30.1864 12.8948 31.08 7.82475 26.7772C8.80861 23.308 13.3552 18.9968 25.3248 18.9968C32.8248 18.9968 44.7224 18.559 46.4933 18.9968C46.4933 20.9672 37.6886 25.2771 28.8248 27.7771Z" fill="#88D1FF"/>
</svg>
